<svg width="48" height="48" viewBox="0 0 48 48" fill="none" xmlns="http://www.w3.org/2000/svg">
<path fill-rule="evenodd" clip-rule="evenodd" d="M13 13.987C13 10.6805 15.6507 8 18.9205 8H29.0795C32.3493 8 35 10.6805 35 13.987C35 16.0808 33.9372 17.9235 32.3274 18.9936C33.9372 20.0637 35 21.9064 35 24.0001C35 27.3067 32.3493 29.9872 29.0795 29.9872H28.9509C27.418 29.9872 26.0211 29.398 24.9697 28.4315V33.9479C24.9697 37.2986 22.2497 40 18.9525 40C15.6908 40 13 37.3277 13 34.013C13 31.9193 14.0627 30.0767 15.6724 29.0065C14.0627 27.9364 13 26.0938 13 24.0001C13 21.9064 14.0628 20.0637 15.6726 18.9936C14.0628 17.9235 13 16.0808 13 13.987ZM23.0303 19.9742H18.9205C16.7218 19.9742 14.9393 21.7767 14.9393 24.0001C14.9393 26.2151 16.7082 28.0123 18.8955 28.026C18.9038 28.0259 18.9122 28.0259 18.9205 28.0259H23.0303V19.9742ZM24.9697 24.0001C24.9697 26.2236 26.7521 28.0261 28.9509 28.0261H29.0795C31.2782 28.0261 33.0607 26.2236 33.0607 24.0001C33.0607 21.7767 31.2782 19.9742 29.0795 19.9742H28.9509C26.7521 19.9742 24.9697 21.7767 24.9697 24.0001ZM18.9205 29.9872C18.9122 29.9872 18.9038 29.9871 18.8955 29.9871C16.7082 30.0008 14.9393 31.798 14.9393 34.013C14.9393 36.2282 16.7456 38.0389 18.9525 38.0389C21.1949 38.0389 23.0303 36.1991 23.0303 33.9479V29.9872H18.9205ZM18.9205 9.96111H23.0303V18.013H18.9205C16.7218 18.013 14.9393 16.2105 14.9393 13.987C14.9393 11.7636 16.7218 9.96111 18.9205 9.96111ZM24.9697 18.013V9.96111H29.0795C31.2782 9.96111 33.0607 11.7636 33.0607 13.987C33.0607 16.2105 31.2782 18.013 29.0795 18.013H24.9697Z" fill="currentColor"/>
</svg>
