<svg width="132" height="39" viewBox="0 0 132 39" fill="none" xmlns="http://www.w3.org/2000/svg">
<path fill-rule="evenodd" clip-rule="evenodd" d="M19.047 38.5506C29.5664 38.5506 38.0941 30.0229 38.0941 19.5036C38.0941 8.98419 29.5664 0.456543 19.047 0.456543C8.52764 0.456543 0 8.98419 0 19.5036C0 30.0229 8.52764 38.5506 19.047 38.5506ZM57.2514 23.9622C57.2514 32.5125 62.4404 38.3296 69.4377 38.3296C73.0165 38.3296 75.9662 37.2223 77.2819 34.8412H77.3887V37.6427H84.7145V1.56446H77.0148V12.9382H76.8546C75.4125 10.8665 72.7548 10.0602 69.2162 10.0602C62.899 10.0602 57.2514 15.4118 57.2514 23.9622ZM77.2285 23.9622C77.2285 28.4511 75.0919 32.2684 71.4597 32.2684C68.0945 32.2684 65.4004 28.6114 65.4004 23.8553C65.4004 19.2595 68.0945 16.0531 71.5665 16.0531C75.3589 16.0531 77.2285 19.3664 77.2285 23.9622ZM40.9728 10.8665V37.6427H48.946V18.5075C48.946 18.5075 53.4474 18.3967 56.4762 18.3967V10.645C53.6339 10.645 50.8012 11.7524 48.946 13.7457V10.8665H40.9728ZM101.067 38.5511C92.04 38.5511 86.8185 32.1918 86.8185 23.9087C86.8185 15.8497 92.7984 9.99335 100.533 9.99335C104.432 9.99335 107.53 11.2759 109.881 13.4135C113.139 16.4061 114.114 20.6489 114.06 26.2066H95.0312C95.5654 29.8939 97.5952 32.1918 101.174 32.1918C103.983 32.1918 106.53 30.6887 107.527 27.2558L113.839 29.9135C113.396 31.9704 111.624 34.5293 109.613 35.9326C107.317 37.5358 104.539 38.5511 101.067 38.5511ZM95.0847 21.023H105.874C105.554 17.7632 103.524 15.679 100.693 15.679C97.3815 15.679 95.6722 17.7632 95.0847 21.023ZM116.496 10.8665V37.6427H124.47V18.5075C124.47 18.5075 128.971 18.3967 132 18.3967V10.645C129.158 10.645 126.325 11.7524 124.47 13.7457V10.8665H116.496Z" fill="#1E262A"/>
</svg>
