<svg width="132" height="36" viewBox="0 0 132 36" fill="none" xmlns="http://www.w3.org/2000/svg">
<g clip-path="url(#clip0_1703_646)">
<path d="M79.2687 4.4992C80.6252 4.4992 81.6855 3.56669 81.6855 2.25253C81.6855 0.938364 80.6253 0.00585938 79.2687 0.00585938C77.9546 0.00585938 76.8951 0.938364 76.8951 2.25253C76.8951 3.56669 77.9546 4.4992 79.2687 4.4992ZM84.2284 25.9493L90.5022 24.0835V23.9142C89.2728 23.7026 88.6794 23.1517 88.6794 21.7098V18.9545C88.6794 18.9545 89.5696 19.2515 91.0955 19.2515C92.7059 19.2515 94.5293 18.4036 95.8005 17.4711C97.5809 16.0723 98.3441 14.0802 98.3441 11.8759C98.3441 8.61129 97.0299 5.98298 93.2997 5.98298C91.5616 5.98298 89.8659 7.12785 89.315 7.97576V8.06045C89.6543 7.89115 90.0359 7.80651 90.4598 7.80651C92.6212 7.80651 93.6807 9.54391 93.6807 13.1471C93.6807 14.8852 93.5537 18.9123 91.0954 18.9123C89.2726 18.9123 88.6793 16.9626 88.6793 15.3091V6.02628L88.5947 5.94087L82.914 7.63669V7.8067C83.9735 8.48459 84.2282 8.82388 84.2282 9.84107M40.1435 4.49974C41.5 4.49974 42.5595 3.56724 42.5595 2.25308C42.5595 0.938912 41.5001 0.00640748 40.1435 0.00640748C38.8293 0.00640748 37.7699 0.938912 37.7699 2.25308C37.7699 3.56724 38.8293 4.49974 40.1435 4.49974ZM30.479 19.0396H51.2493V18.828C50.3168 18.6587 49.9352 18.3194 49.8929 17.0899V6.02624L49.8506 5.94084L44.2122 7.59427V7.72125C45.0185 8.22983 45.4841 8.48449 45.4841 9.75633V17.2597C45.4841 18.1076 44.8062 18.8278 43.916 18.8278C43.0257 18.8278 42.3903 18.0222 42.3903 17.2597V6.02632L42.3472 5.94091L36.7096 7.59435V7.72132C37.4729 8.2299 37.9815 8.48457 37.9815 9.75642V17.2597C37.9815 18.0646 37.3029 18.8279 36.4127 18.8279C35.5655 18.8279 34.8869 18.0646 34.8869 17.2597V6.0264L34.8023 5.94099L29.207 7.59443V7.7214C29.9696 8.22999 30.4789 8.48465 30.4789 9.7565M53.7511 17.0898C53.7081 18.3193 53.3272 18.6587 52.437 18.8279V19.0396H67.0603V18.8279C66.1285 18.6587 65.7469 18.3194 65.7046 17.0898V6.02621L65.6623 5.94082L60.024 7.59424V7.72122C60.8295 8.22981 61.2958 8.48446 61.2958 9.75631V17.2596C61.2958 18.0222 60.6603 18.8278 59.727 18.8278C58.9221 18.8278 58.2013 18.0645 58.2013 17.2596V9.75631C58.2013 7.55194 57.3534 5.9831 54.895 5.9831C53.0299 5.9831 51.3342 7.21258 50.5286 8.48445V8.56913C50.9102 8.39984 51.4188 8.31447 51.8427 8.31447C53.1569 8.31447 53.7508 8.90842 53.7508 10.3919M109.705 19.2517C110.34 19.2517 110.891 19.0824 111.357 18.8278C112.205 18.3615 112.756 17.5983 112.926 17.1743V17.0474C112.756 17.1743 112.29 17.302 112.078 17.302C111.23 17.302 110.806 16.7081 110.806 14.97C110.806 14.3344 110.976 13.6988 111.273 13.2749C111.57 12.8509 112.163 12.5963 113.266 12.1723C113.308 12.5116 113.308 12.8086 113.308 13.1902V15.9878C113.308 16.9627 113.519 17.6829 113.901 18.2344C114.367 18.9123 115.131 19.2516 116.232 19.2516C118.013 19.2516 119.072 18.2345 119.454 17.3019V17.1743C119.285 17.2597 119.03 17.3866 118.734 17.3866C118.055 17.3866 117.716 17.0473 117.716 16.1994V11.876C117.674 8.8237 116.232 5.98308 112.629 5.98308C110.891 5.98308 109.068 7.17026 108.517 7.97587V8.06056C108.857 7.89126 109.365 7.80662 109.832 7.80662C111.739 7.80662 113.011 9.20475 113.265 12.0031L108.857 13.1049C108.475 13.1903 107.33 13.6135 106.822 14.5038C106.61 14.9277 106.483 15.4794 106.483 16.1149C106.483 17.853 107.585 19.2517 109.705 19.2517ZM126.11 19.2941C130.009 19.2941 131.62 16.2418 132.001 14.6737L131.832 14.546C131.153 15.4362 130.136 16.1148 128.399 16.1148C125.94 16.1148 124.329 14.5037 124.329 11.1552C124.329 8.06058 124.965 6.70413 125.813 6.28018V6.06857C122.421 6.53412 119.92 9.16242 119.92 12.9356C119.92 16.1995 121.955 19.2941 126.11 19.2941ZM127.635 6.57729C127.932 6.9166 128.102 7.25518 128.313 8.90864C128.399 9.62885 129.077 10.2228 129.84 10.1381C131.153 9.96811 131.153 8.73856 130.984 8.27303C130.602 7.04355 129.543 5.98325 126.534 6.02564V6.28029C126.534 6.28029 127.381 6.23802 127.635 6.57729ZM106.144 18.8281C105.127 18.6157 104.618 18.2772 104.618 16.666V6.02624L104.533 5.94084L98.9377 7.59427V7.72125C99.7009 8.22983 100.21 8.48449 100.21 9.75633V16.7927C100.21 18.3191 99.7856 18.6585 98.7254 18.8278V19.0394H106.144M102.371 4.49955C103.728 4.49955 104.788 3.56705 104.788 2.25288C104.788 0.938721 103.728 0.00621565 102.371 0.00621565C101.057 0.00621565 99.998 0.938721 99.998 2.25288C99.998 3.56705 101.057 4.49955 102.371 4.49955ZM69.5617 17.0898C69.5194 18.3193 69.1378 18.6586 68.2476 18.8279V19.0395H83.0415V18.8279C82.0244 18.6156 81.6004 18.0647 81.5158 16.9205V6.02664L81.4735 5.94123L75.8352 7.59466V7.72163C76.6408 8.23022 77.1078 8.48488 77.1078 9.75673V17.2601C77.1078 18.2772 76.2599 18.8282 75.5389 18.8282C74.5218 18.8282 73.9701 17.938 73.9701 17.2601V9.75673C73.9701 7.55236 73.1653 5.98351 70.6639 5.98351C68.8411 5.98351 67.146 7.21299 66.3404 8.48486V8.56954C66.7221 8.40025 67.2307 8.31489 67.6546 8.31489C68.9688 8.31489 69.562 8.90885 69.562 10.3923M24.5873 21.7531C24.1211 22.0917 23.3155 22.431 22.1706 22.431C19.2037 22.431 15.6852 20.3959 12.5483 20.3959C11.5311 20.3959 10.7679 20.5236 10.1746 20.6929C13.1422 18.7432 19.9667 17.7683 19.9667 10.3495C19.9667 4.7543 15.5579 1.15019 9.96271 1.15019C4.36751 1.15019 0.000976562 4.75412 0.000976562 10.3495C0.000976562 15.5215 3.85806 19.4213 9.79299 19.5057L9.836 19.3788C6.78372 18.7855 5.55424 16.0725 5.55424 10.3501C5.55424 4.45788 6.69841 1.44789 9.96299 1.44789C13.3115 1.44789 14.371 4.50017 14.371 10.3501C14.371 15.9884 13.4808 17.4718 11.9974 18.9129C10.8955 19.9732 9.41205 20.5664 8.14027 21.7105C7.25006 22.5161 6.86841 23.0247 6.78381 23.1947L6.8685 23.2794C7.16475 23.1094 7.801 22.7708 8.81819 22.7708C11.7012 22.7708 15.2613 25.3137 18.8643 25.3137C22.1706 25.3137 24.1633 22.8977 24.7142 21.8382M22.4252 15.4367C22.4252 17.9803 23.697 19.2099 25.986 19.2099C28.1481 19.2099 29.2498 17.938 29.8855 16.6662V16.5393C29.5038 16.7509 29.0806 16.8362 28.5713 16.8362C27.3002 16.8362 26.8332 16.2423 26.8332 14.6742V6.02669L26.7909 5.94128L21.1533 7.59472V7.72169C22.1289 8.40029 22.4252 8.78189 22.4252 9.75679M28.3661 33.3631C28.3661 34.2748 27.7026 35.6471 25.8332 35.6471C23.9078 35.6471 23.07 34.5696 23.07 33.3997V30.0655L22.4251 29.5038V29.458H25.2255V29.5038L24.4788 30.0655V33.3258C24.4788 34.1737 24.9486 34.8644 26.1552 34.8644C27.1501 34.8644 27.7212 34.1364 27.7212 33.3258V30.0655L26.9845 29.5038V29.458H29.011V29.5038L28.3661 30.0655M40.8566 29.4579V29.5038L40.2024 30.0842V35.5553H39.6128L35.4587 30.9772V34.9291L36.3619 35.5001V35.5553H34.1417V35.5001L34.8052 34.9291V30.2685C34.5104 29.955 34.0864 29.5497 34.0685 29.5038V29.4579H35.9838L39.5482 33.4277V30.0842L38.701 29.5039V29.458M46.0057 35.5554V35.5002L46.6599 34.9471V30.0656L46.0057 29.5133V29.458H48.695V29.5133L48.0509 30.0656V34.9471L48.695 35.5002V35.5554M57.7596 29.5039V29.458H59.6476V29.5039L59.0946 30.0656L56.949 35.6106H56.6355L54.2411 30.0656L53.6887 29.5039V29.458H56.4791V29.5039L55.8156 30.0656L57.1699 33.4091L58.4224 30.1021M64.6309 35.5553V35.5001L65.2851 34.947V30.0656L64.6309 29.5039V29.458H68.9694V30.821H68.9141L68.1588 29.9831H66.6667V32.1014H68.2233L68.7664 31.4378H68.8216V33.2706H68.7664L68.2233 32.6078H66.6667V35.0209H68.3338L69.1071 33.9528H69.1717V35.5553M74.5051 35.5553V35.5001L75.1593 34.947V30.0656L74.5051 29.5039V29.458H77.1119C78.3643 29.458 79.3414 29.826 79.3414 30.8575C79.3414 31.5483 78.779 32.0555 78.3091 32.3037L79.2948 34.026C79.8292 34.947 80.2711 35.3064 80.5379 35.5001V35.5553C80.4274 35.5826 80.1513 35.6192 79.8292 35.6192C78.7517 35.6192 78.4017 35.2418 78.061 34.5883L77.0294 32.635H76.5409V34.947L77.2504 35.5001L77.2597 35.5553M76.5409 29.9551V32.1659H77.3974C77.6829 32.1659 78.0423 31.696 78.0423 31.0791C78.0423 30.2592 77.5079 29.9551 76.9742 29.9551M88.9394 29.5132V30.8761H88.8748C88.3311 30.2133 87.9165 29.8726 87.4839 29.8726C87.1797 29.8726 86.8756 30.1021 86.8756 30.4802C86.8756 30.9959 87.1618 31.2169 87.8613 31.742C88.7916 32.4514 89.3533 32.9392 89.3533 33.851C89.3533 34.8646 88.5155 35.6472 87.2164 35.6472C86.4058 35.6472 85.8355 35.4442 85.55 35.3064C85.5034 35.0023 85.4482 33.9988 85.4761 33.3539H85.5587C85.9733 34.3115 86.5077 35.0762 87.2078 35.0762C87.6497 35.0762 88.009 34.7355 88.009 34.229C88.009 33.6759 87.7235 33.4091 87.0048 32.884C86.0752 32.1932 85.6419 31.6587 85.6419 30.9221C85.6419 29.9092 86.4984 29.3561 87.6404 29.3561C88.3032 29.3561 88.8009 29.4673 88.9394 29.5132ZM94.6136 35.5553V35.5001L95.2671 34.947V30.0656L94.6136 29.5132V29.458H97.3029V29.5132L96.658 30.0656V34.947L97.3029 35.5001V35.5553M108.2 29.458V30.968H108.135L107.242 29.983H106.063V34.9377L106.809 35.5001V35.5553H103.898V35.5001L104.654 34.9377V29.983H103.466L102.581 30.968H102.526V29.458M117.015 29.5038V29.458H118.903V29.5038L118.341 30.0655L116.83 32.4973V34.9197L117.466 35.5V35.5552H114.786V35.5L115.431 34.9197V32.6723L113.745 30.0655L113.193 29.5038V29.458H115.956V29.5038L115.311 30.0655L116.499 31.9722L117.66 30.1021" fill="#1E262A"/>
</g>
<defs>
<clipPath id="clip0_1703_646">
<rect width="132" height="35.6406" fill="white"/>
</clipPath>
</defs>
</svg>
