<svg width="132" height="39" viewBox="0 0 132 39" fill="none" xmlns="http://www.w3.org/2000/svg">
<g clip-path="url(#clip0_1703_519)">
<path d="M14.2958 6.25781V16.9199H4.60008V6.25781H0V31.7097H4.60132V21.3936H14.2946V31.7097H18.8972V6.25781H14.2958ZM33.6251 23.4832C33.6251 24.5034 33.224 25.4818 32.51 26.2031C31.7959 26.9245 30.8275 27.3298 29.8177 27.3298C28.8079 27.3298 27.8394 26.9245 27.1254 26.2031C26.4114 25.4818 26.0102 24.5034 26.0102 23.4832V12.5808H21.6455V23.4832C21.6455 25.6707 22.5056 27.7686 24.0367 29.3154C25.5678 30.8621 27.6443 31.7311 29.8096 31.7311C31.9748 31.7311 34.0514 30.8621 35.5825 29.3154C37.1135 27.7686 37.9737 25.6707 37.9737 23.4832V12.5808H33.6251V23.4832ZM65.9664 13.7043C65.9664 11.4687 67.4296 10.7604 69.0323 10.7604C70.3249 10.7604 72.0309 11.7543 73.1479 12.9595L76.0059 9.5552C74.5788 7.6052 71.6847 6.25781 69.3149 6.25781C64.5791 6.25781 61.1546 9.05952 61.1546 13.7043C61.1546 22.322 71.5801 19.587 71.5801 24.4104C71.5801 25.8975 70.1505 27.2109 68.5142 27.2109C65.9328 27.2109 65.0959 25.9365 63.9104 24.5878L60.7374 27.9204C62.7672 30.4366 65.2703 31.7147 68.2677 31.7147C72.7669 31.7147 76.3857 28.8791 76.3857 24.4457C76.3857 14.8793 65.9589 17.8521 65.9589 13.7043M130.465 27.6437C127.886 27.6437 127.152 26.5164 127.152 24.7904V17.1476H131.162V13.2753H127.152V8.1663L122.726 10.1729V25.7402C122.726 29.722 125.446 31.7286 129.174 31.7286C129.76 31.7386 130.345 31.6908 130.92 31.5877L132 27.5719C131.513 27.6059 130.954 27.6399 130.465 27.6399M50.2397 12.7079C48.0779 12.7079 46.5686 13.342 45.1091 14.7875V6.41004H40.7382V21.9383C40.7382 27.7506 44.8974 31.7336 49.5722 31.7336C54.7576 31.7336 59.3191 27.6801 59.3191 22.2227C59.3191 16.8331 55.1212 12.7117 50.2397 12.7117M50.2123 27.2889C49.5609 27.2889 48.9158 27.1592 48.314 26.9074C47.7121 26.6555 47.1653 26.2864 46.7046 25.821C46.244 25.3557 45.8786 24.8032 45.6293 24.1952C45.38 23.5872 45.2517 22.9355 45.2517 22.2774C45.2517 21.6193 45.38 20.9676 45.6293 20.3596C45.8786 19.7515 46.244 19.1991 46.7046 18.7337C47.1653 18.2684 47.7121 17.8992 48.314 17.6474C48.9158 17.3955 49.5609 17.2659 50.2123 17.2659C51.5279 17.2659 52.7897 17.7939 53.72 18.7337C54.6503 19.6736 55.1729 20.9482 55.1729 22.2774C55.1729 23.6065 54.6503 24.8812 53.72 25.821C52.7897 26.7609 51.5279 27.2889 50.2123 27.2889ZM97.7099 21.9912C97.7099 16.5236 93.1584 12.4802 87.9631 12.4802C83.2895 12.4802 79.129 16.462 79.129 22.2755V37.8126H83.5V29.4238C84.9569 30.8668 86.4687 31.5034 88.628 31.5034C93.5095 31.5034 97.7099 27.382 97.7099 21.9912ZM93.5706 21.9358C93.5706 23.2649 93.0479 24.5396 92.1176 25.4795C91.1874 26.4193 89.9256 26.9473 88.61 26.9473C87.2944 26.9473 86.0326 26.4193 85.1023 25.4795C84.172 24.5396 83.6494 23.2649 83.6494 21.9358C83.6494 20.6067 84.172 19.332 85.1023 18.3921C86.0326 17.4523 87.2944 16.9243 88.61 16.9243C89.9256 16.9243 91.1874 17.4523 92.1176 18.3921C93.0479 19.332 93.5706 20.6067 93.5706 21.9358Z" fill="#1E262A"/>
<path d="M111.834 12.2662V7.82901C112.415 7.55496 112.906 7.12002 113.251 6.57479C113.597 6.02957 113.781 5.3965 113.784 4.74927V4.64736C113.784 2.76027 112.27 1.23046 110.402 1.23046H110.301C109.404 1.23046 108.544 1.59045 107.91 2.23125C107.275 2.87204 106.919 3.74114 106.919 4.64736V4.74927C106.922 5.3965 107.107 6.02957 107.452 6.57479C107.797 7.12002 108.289 7.55496 108.869 7.82901V12.2662C107.201 12.5242 105.63 13.223 104.315 14.2917L92.2696 4.81343C92.3555 4.50017 92.4003 4.17811 92.4053 3.85478C92.4068 3.09328 92.1847 2.34845 91.7671 1.71449C91.3495 1.08053 90.7552 0.585931 90.0593 0.293253C89.3635 0.000575319 88.5973 -0.077032 87.8578 0.0702477C87.1182 0.217527 86.4385 0.583077 85.9047 1.12066C85.3708 1.65824 85.0068 2.3437 84.8586 3.09034C84.7104 3.83698 84.7847 4.61125 85.0721 5.31521C85.3595 6.01917 85.8472 6.6212 86.4733 7.04515C87.0995 7.4691 87.836 7.69592 88.5898 7.69691C89.2492 7.69377 89.8963 7.51592 90.4664 7.18111L102.328 16.5059C101.262 18.1321 100.706 20.045 100.732 21.9951C100.759 23.9451 101.366 25.842 102.475 27.4385L98.8671 31.0843C98.5755 30.9901 98.2716 30.9401 97.9655 30.9359C97.3468 30.9364 96.7421 31.1222 96.2278 31.4697C95.7136 31.8173 95.3129 32.3111 95.0763 32.8887C94.8398 33.4663 94.778 34.1018 94.8988 34.7148C95.0197 35.3278 95.3177 35.8909 95.7552 36.3329C96.1927 36.7749 96.75 37.076 97.3569 37.198C97.9637 37.3201 98.5927 37.2577 99.1644 37.0187C99.7361 36.7798 100.225 36.3749 100.569 35.8554C100.913 35.3359 101.097 34.725 101.097 34.0999C101.093 33.7906 101.044 33.4837 100.95 33.1891L104.519 29.5822C105.683 30.4874 107.037 31.1114 108.476 31.4065C109.916 31.7016 111.403 31.66 112.824 31.2847C114.245 30.9095 115.562 30.2106 116.674 29.2416C117.787 28.2727 118.665 27.0593 119.241 25.6946C119.818 24.3298 120.077 22.8499 120 21.3681C119.923 19.8863 119.511 18.442 118.796 17.1458C118.082 15.8496 117.082 14.736 115.876 13.8902C114.669 13.0444 113.286 12.4889 111.834 12.2662ZM110.355 26.8598C109.695 26.8781 109.039 26.7627 108.424 26.5203C107.809 26.278 107.249 25.9136 106.776 25.4488C106.303 24.984 105.927 24.4281 105.67 23.814C105.414 23.1999 105.281 22.54 105.281 21.8734C105.281 21.2068 105.414 20.547 105.67 19.9329C105.927 19.3188 106.303 18.7629 106.776 18.298C107.249 17.8332 107.809 17.4688 108.424 17.2265C109.039 16.9842 109.695 16.8687 110.355 16.8871C111.633 16.9323 112.844 17.477 113.733 18.4064C114.622 19.3358 115.119 20.5774 115.12 21.8697C115.12 23.162 114.624 24.4041 113.737 25.3345C112.849 26.2648 111.638 26.8107 110.36 26.8572" fill="#1E262A"/>
</g>
<defs>
<clipPath id="clip0_1703_519">
<rect width="132" height="39" fill="white"/>
</clipPath>
</defs>
</svg>
