<svg width="32" height="32" viewBox="0 0 32 32" fill="none" xmlns="http://www.w3.org/2000/svg">
	<path d="M16 16C16 14.5855 16.5926 13.229 17.6475 12.2288C18.7024 11.2286 20.1332 10.6667 21.625 10.6667C23.1168 10.6667 24.5476 11.2286 25.6025 12.2288C26.6574 13.229 27.25 14.5855 27.25 16C27.25 17.4145 26.6574 18.771 25.6025 19.7712C24.5476 20.7714 23.1168 21.3333 21.625 21.3333C20.1332 21.3333 18.7024 20.7714 17.6475 19.7712C16.5926 18.771 16 17.4145 16 16Z" fill="#1ABCFE"/>
	<path d="M4.75 26.6667C4.75 25.2522 5.34263 23.8956 6.39752 22.8954C7.45242 21.8952 8.88316 21.3333 10.375 21.3333H16V26.6667C16 28.0812 15.4074 29.4377 14.3525 30.4379C13.2976 31.4381 11.8668 32 10.375 32C8.88316 32 7.45242 31.4381 6.39752 30.4379C5.34263 29.4377 4.75 28.0812 4.75 26.6667Z" fill="#0ACF83"/>
	<path d="M16 0V10.6667L21.625 10.6667C23.1168 10.6667 24.5476 10.1048 25.6025 9.10457C26.6574 8.10437 27.25 6.74782 27.25 5.33333C27.25 3.91884 26.6574 2.56229 25.6025 1.5621C24.5476 0.561903 23.1168 0 21.625 0H16Z" fill="#FF7262"/>
	<path d="M4.75 5.33333C4.75 6.74782 5.34263 8.10437 6.39752 9.10457C7.45242 10.1048 8.88316 10.6667 10.375 10.6667H16V0H10.375C8.88316 0 7.45242 0.561903 6.39752 1.5621C5.34263 2.56229 4.75 3.91884 4.75 5.33333Z" fill="#F24E1E"/>
	<path d="M4.75 16C4.75 17.4145 5.34263 18.771 6.39752 19.7712C7.45242 20.7714 8.88316 21.3333 10.375 21.3333H16L16 10.6667H10.375C8.88316 10.6667 7.45242 11.2286 6.39752 12.2288C5.34263 13.229 4.75 14.5855 4.75 16Z" fill="#A259FF"/>
</svg>
