<svg width="32" height="32" viewBox="0 0 32 32" fill="none" xmlns="http://www.w3.org/2000/svg">
	<rect width="32" height="32" fill="#0A66C2"/>
	<path fill-rule="evenodd" clip-rule="evenodd" d="M29.6823 0H2.41219C1.10781 0 0 1.03162 0 2.30248V29.696C0 30.9684 0.726857 32 2.03124 32H29.3013C30.6072 32 32 30.9684 32 29.696V2.30248C32 1.03162 30.9882 0 29.6823 0ZM12.1905 12.1905H16.4983V14.3863H16.5455C17.2023 13.2023 19.1421 12 21.5406 12C26.144 12 27.4286 14.4442 27.4286 18.9714V27.4286H22.8571V19.805C22.8571 17.7783 22.048 16 20.1554 16C17.8575 16 16.7619 17.5558 16.7619 20.1097V27.4286H12.1905V12.1905ZM4.57143 27.4286H9.14286V12.1905H4.57143V27.4286ZM9.71429 6.85714C9.71429 8.43581 8.43581 9.71429 6.85714 9.71429C5.27848 9.71429 4 8.43581 4 6.85714C4 5.27848 5.27848 4 6.85714 4C8.43581 4 9.71429 5.27848 9.71429 6.85714Z" fill="var(--special__social-color--linkedin)"/>
	<path d="M9.71429 6.85714C9.71429 8.43581 8.43581 9.71429 6.85714 9.71429C5.27848 9.71429 4 8.43581 4 6.85714C4 5.27848 5.27848 4 6.85714 4C8.43581 4 9.71429 5.27848 9.71429 6.85714Z" fill="white"/>
	<path d="M4.57143 27.4286H9.14286V12.1905H4.57143V27.4286Z" fill="white"/>
	<path d="M12.1905 12.1905H16.4983V14.3863H16.5455C17.2023 13.2023 19.1421 12 21.5406 12C26.144 12 27.4286 14.4442 27.4286 18.9714V27.4286H22.8571V19.805C22.8571 17.7783 22.048 16 20.1554 16C17.8575 16 16.7619 17.5558 16.7619 20.1097V27.4286H12.1905V12.1905Z" fill="white"/>
</svg>