<svg viewBox="0 0 646 124" fill="currentColor" xmlns="http://www.w3.org/2000/svg">
	<path d="M159,34.8h-25.1v83.6H159V58.1h24.1V34c-13,1.3-18.5,5-24.1,9.6V34.8z"></path>
	<path d="M63.7,2C29.9,2,2.5,28.8,2.5,62s27.4,60,61.2,60s61.2-26.8,61.2-60S97.5,2,63.7,2z M63.7,97.3
        c-20,0-36.1-15.8-36.1-35.4s16.1-35.4,36.1-35.4s36.1,15.7,36.1,35.4S83.6,97.3,63.7,97.3z"></path>
	<path d="M249.6,41.1c-3.7-3.6-12.3-8.4-23.6-8.4c-17.2,0-38.9,13-38.9,44.5s21.8,43.5,40,43.5c12.5,0,20.6-5.2,24-10.1
        v7.8H274V5.5h-24.3L249.6,41.1L249.6,41.1z M231,102.6c-10.8,0-18.5-9-18.5-25.9c0-18.2,7.8-25.6,19.1-25.6
        c12.1,0,18.5,8.4,18.5,25.6C250.2,93,244.5,102.6,231,102.6z"></path>
	<path d="M401.2,43.5v-8.8h-25.1v83.6h25.1V58.1h24.1V34C412.3,35.2,406.7,39,401.2,43.5z"></path>
	<path d="M325.4,32.3c-30.7,0-43.7,23.1-43.7,46.1c0,25.5,21.1,43.1,43.7,43.1c34.2,0,41.5-26.3,41.5-26.3l-19.5-8.6
        c0,0-4.2,15.9-20.4,15.9c-13,0-19.5-9.8-20-20.8h61.5C368.4,51,352.5,32.3,325.4,32.3z M307.1,66.3c0.3-8.2,8.4-16.5,17.8-16.5
        c9.2,0,17.5,6.6,17.5,16.5H307.1z"></path>
	<path d="M439.6,121.4c6.4,0,11.6-5.1,11.6-11.4s-5.2-11.4-11.6-11.4S428,103.7,428,110
        C428,116.4,433.2,121.4,439.6,121.4z"></path>
	<path d="M597.7,32.3c-25.2,0-45.5,20-45.5,44.6c0,24.7,20.4,44.6,45.5,44.6c25.2,0,45.5-20,45.5-44.6
        C643.3,52.3,622.9,32.3,597.7,32.3z M597.7,100.5c-13,0-23.5-10.4-23.5-23.1s10.6-23.1,23.5-23.1c13,0,23.6,10.4,23.6,23.1
        S610.7,100.5,597.7,100.5z"></path>
	<path d="M543.8,94.4l2,0.9c0,0-6.9,24.9-38.8,26.2c-0.3,0-0.7,0-1,0c-0.5,0-1,0-1.5,0c-0.3,0-0.7,0-1,0
        c-15.6-0.3-30.4-9.2-37.8-23.3c-3-6.6-4.5-13.9-4.8-21.3c0.2-7.4,1.7-14.8,4.8-21.3c6-13.1,18.2-22.9,37.8-23.3c0.3,0,0.7,0,1,0
        c0.5,0,1,0,1.5,0c0.3,0,0.7,0,1,0c32,1.3,38.8,26.2,38.8,26.2l-2,0.9l-17.5,7.7c0,0-2.7-10.4-12.2-14.3c-1.9-0.8-4.1-1.4-6.5-1.5
        c-0.2,0-0.3,0-0.6,0c-0.6,0-1-0.1-1.5-0.1c-0.6,0-1.3,0-1.9,0.1c-12.3,0.9-17.7,11-17.7,25.4c0,15.2,6.3,25.8,19.5,25.8
        c4.2,0,7.7-1,10.7-2.6c0,0,0,0,0.1,0c7.8-4.6,10.1-13.3,10.1-13.3L543.8,94.4z"></path>
</svg>